<?xml version="1.0" encoding="UTF-8" standalone="no"?><svg xmlns="http://www.w3.org/2000/svg" xmlns:xlink="http://www.w3.org/1999/xlink" contentScriptType="application/ecmascript" contentStyleType="text/css" height="621px" preserveAspectRatio="none" style="width:924px;height:621px;" version="1.1" viewBox="0 0 924 621" width="924px" zoomAndPan="magnify"><defs><filter height="300%" id="futg0c1hy5ysc" width="300%" x="-1" y="-1"><feGaussianBlur result="blurOut" stdDeviation="2.0"/><feColorMatrix in="blurOut" result="blurOut2" type="matrix" values="0 0 0 0 0 0 0 0 0 0 0 0 0 0 0 0 0 0 .4 0"/><feOffset dx="4.0" dy="4.0" in="blurOut2" result="blurOut3"/><feBlend in="SourceGraphic" in2="blurOut3" mode="normal"/></filter></defs><g><text fill="#000000" font-family="sans-serif" font-size="18" lengthAdjust="spacing" textLength="231" x="340.25" y="18.6855">EchoBoat Systems Overview</text><!--MD5=[f536d17aecbe7e720e6b106cdf7bd000]
cluster Land--><polygon fill="#FFFFFF" filter="url(#futg0c1hy5ysc)" points="16,66.4006,56,66.4006,63,90.01,432,90.01,432,176.4006,16,176.4006,16,66.4006" style="stroke:#000000;stroke-width:1.5;"/><line style="stroke:#000000;stroke-width:1.5;" x1="16" x2="63" y1="90.01" y2="90.01"/><text fill="#000000" font-family="sans-serif" font-size="14" font-weight="bold" lengthAdjust="spacing" textLength="34" x="20" y="82.9338">Land</text><!--MD5=[3620b8db962a0c9e2b118e4ffaea039f]
entity RC--><rect fill="#FEFECE" filter="url(#futg0c1hy5ysc)" height="37.6094" style="stroke:#000000;stroke-width:1.5;" width="135" x="32.5" y="122.4006"/><text fill="#000000" font-family="sans-serif" font-size="14" lengthAdjust="spacing" textLength="115" x="42.5" y="146.9338">Remote Controller</text><!--MD5=[88055e3d8563b3c3a3ec5757459b8f32]
entity Laptop--><rect fill="#FEFECE" filter="url(#futg0c1hy5ysc)" height="37.6094" style="stroke:#000000;stroke-width:1.5;" width="64" x="203" y="122.4006"/><text fill="#000000" font-family="sans-serif" font-size="14" lengthAdjust="spacing" textLength="44" x="213" y="146.9338">Laptop</text><!--MD5=[a827571b030feb4cf77eb505f9444fdb]
entity Wifi1--><rect fill="#FEFECE" filter="url(#futg0c1hy5ysc)" height="37.6094" style="stroke:#000000;stroke-width:1.5;" width="113" x="302.5" y="122.4006"/><text fill="#000000" font-family="sans-serif" font-size="14" lengthAdjust="spacing" textLength="93" x="312.5" y="146.9338">Wifi-Antenna 1</text><!--MD5=[adec32fe9ea263a4fdfa628539becf82]
entity PH--><rect fill="#FEFECE" filter="url(#futg0c1hy5ysc)" height="37.6094" style="stroke:#000000;stroke-width:1.5;" width="82" x="439" y="356.4006"/><text fill="#000000" font-family="sans-serif" font-size="14" lengthAdjust="spacing" textLength="62" x="449" y="380.9338">Pixhawk 4</text><!--MD5=[7b283ce894c5928581d5380ce71c9d62]
entity PC--><rect fill="#FEFECE" filter="url(#futg0c1hy5ysc)" height="37.6094" style="stroke:#000000;stroke-width:1.5;" width="39" x="580.5" y="240.4006"/><text fill="#000000" font-family="sans-serif" font-size="14" lengthAdjust="spacing" textLength="19" x="590.5" y="264.9338">PC</text><!--MD5=[1852beabfba7d4e0411063760e6a4c5f]
entity SBES--><rect fill="#FEFECE" filter="url(#futg0c1hy5ysc)" height="37.6094" style="stroke:#000000;stroke-width:1.5;" width="56" x="699" y="240.4006"/><text fill="#000000" font-family="sans-serif" font-size="14" lengthAdjust="spacing" textLength="36" x="709" y="264.9338">SBES</text><!--MD5=[e31659ec9c5f60b4e4e83871f74739f2]
entity GNSS--><rect fill="#FEFECE" filter="url(#futg0c1hy5ysc)" height="37.6094" style="stroke:#000000;stroke-width:1.5;" width="58" x="451" y="122.4006"/><text fill="#000000" font-family="sans-serif" font-size="14" lengthAdjust="spacing" textLength="38" x="461" y="146.9338">GNSS</text><!--MD5=[c4f6ed9b56eaa49e4a21eb7ad2f46136]
entity GNSSC--><rect fill="#FEFECE" filter="url(#futg0c1hy5ysc)" height="37.6094" style="stroke:#000000;stroke-width:1.5;" width="124" x="562" y="122.4006"/><text fill="#000000" font-family="sans-serif" font-size="14" lengthAdjust="spacing" textLength="104" x="572" y="146.9338">GNSS Controller</text><!--MD5=[ae8265c62b5fdfc486198cf91618d43d]
entity IMU--><rect fill="#FEFECE" filter="url(#futg0c1hy5ysc)" height="37.6094" style="stroke:#000000;stroke-width:1.5;" width="43" x="869.5" y="122.4006"/><text fill="#000000" font-family="sans-serif" font-size="14" lengthAdjust="spacing" textLength="23" x="879.5" y="146.9338">IMU</text><!--MD5=[cd2a6ff59c598da4d68ca989d77310bd]
entity PMstbd--><rect fill="#FEFECE" filter="url(#futg0c1hy5ysc)" height="37.6094" style="stroke:#000000;stroke-width:1.5;" width="150" x="405" y="472.4006"/><text fill="#000000" font-family="sans-serif" font-size="14" lengthAdjust="spacing" textLength="130" x="415" y="496.9338">Power Module STBD</text><!--MD5=[bcbc71b00e100886db05cabc592e03d4]
entity PMbow--><rect fill="#FEFECE" filter="url(#futg0c1hy5ysc)" height="37.6094" style="stroke:#000000;stroke-width:1.5;" width="139" x="556.5" y="356.4006"/><text fill="#000000" font-family="sans-serif" font-size="14" lengthAdjust="spacing" textLength="119" x="566.5" y="380.9338">Power Module Bow</text><!--MD5=[c183623ca0fd6a4bcca4e10754028029]
entity Battery PS--><rect fill="#FEFECE" filter="url(#futg0c1hy5ysc)" height="37.6094" style="stroke:#000000;stroke-width:1.5;" width="87" x="261.5" y="571.4006"/><text fill="#000000" font-family="sans-serif" font-size="14" lengthAdjust="spacing" textLength="67" x="271.5" y="595.9338">Battery PS</text><!--MD5=[31309c059333adf40194642b2c226d4c]
entity Battery STBD--><rect fill="#FEFECE" filter="url(#futg0c1hy5ysc)" height="37.6094" style="stroke:#000000;stroke-width:1.5;" width="106" x="427" y="571.4006"/><text fill="#000000" font-family="sans-serif" font-size="14" lengthAdjust="spacing" textLength="86" x="437" y="595.9338">Battery STBD</text><!--MD5=[97e5d41a600981e35cf9bc1e1ecccd94]
entity Battery Bow--><rect fill="#FEFECE" filter="url(#futg0c1hy5ysc)" height="37.6094" style="stroke:#000000;stroke-width:1.5;" width="95" x="730.5" y="356.4006"/><text fill="#000000" font-family="sans-serif" font-size="14" lengthAdjust="spacing" textLength="75" x="740.5" y="380.9338">Battery Bow</text><!--MD5=[19486d78f4cef3a1108b73df2c2b7531]
entity ESCps--><rect fill="#FEFECE" filter="url(#futg0c1hy5ysc)" height="37.6094" style="stroke:#000000;stroke-width:1.5;" width="215" x="154.5" y="472.4006"/><text fill="#000000" font-family="sans-serif" font-size="14" lengthAdjust="spacing" textLength="195" x="164.5" y="496.9338">Electronic Speed Controller PS</text><!--MD5=[7f1af9d08ed3ec176d7ae880fc4f43f3]
entity ESCstbd--><rect fill="#FEFECE" filter="url(#futg0c1hy5ysc)" height="37.6094" style="stroke:#000000;stroke-width:1.5;" width="234" x="590" y="472.4006"/><text fill="#000000" font-family="sans-serif" font-size="14" lengthAdjust="spacing" textLength="214" x="600" y="496.9338">Electronic Speed Controller STBD</text><!--MD5=[2dd8d15184fa354d84e225875cf1e3d5]
entity Motor PS--><rect fill="#FEFECE" filter="url(#futg0c1hy5ysc)" height="37.6094" style="stroke:#000000;stroke-width:1.5;" width="78" x="148" y="571.4006"/><text fill="#000000" font-family="sans-serif" font-size="14" lengthAdjust="spacing" textLength="58" x="158" y="595.9338">Motor PS</text><!--MD5=[4dfc217aa0c9521d05b4cff83f6a2287]
entity Motor STBD--><rect fill="#FEFECE" filter="url(#futg0c1hy5ysc)" height="37.6094" style="stroke:#000000;stroke-width:1.5;" width="97" x="658.5" y="571.4006"/><text fill="#000000" font-family="sans-serif" font-size="14" lengthAdjust="spacing" textLength="77" x="668.5" y="595.9338">Motor STBD</text><!--MD5=[db0e69463f977d4a793e34313cff7aab]
entity RCtrans--><rect fill="#FEFECE" filter="url(#futg0c1hy5ysc)" height="37.6094" style="stroke:#000000;stroke-width:1.5;" width="100" x="245" y="240.4006"/><text fill="#000000" font-family="sans-serif" font-size="14" lengthAdjust="spacing" textLength="80" x="255" y="264.9338">RC Receiver</text><!--MD5=[7849a47e91d80dd565fbbc1e3f19b043]
entity Wifi2--><rect fill="#FEFECE" filter="url(#futg0c1hy5ysc)" height="37.6094" style="stroke:#000000;stroke-width:1.5;" width="113" x="721.5" y="122.4006"/><text fill="#000000" font-family="sans-serif" font-size="14" lengthAdjust="spacing" textLength="93" x="731.5" y="146.9338">Wifi-Antenna 2</text><!--MD5=[e67d577b913cb0685ab4a15f8fcc19e9]
link RCtrans to PH--><path d="M328.89,281.2806 C362.22,301.8206 412.81,333.0006 446.14,353.5306 " fill="none" id="RCtrans-PH" style="stroke:#A80036;stroke-width:1.0;"/><polygon fill="#A80036" points="450.52,356.2306,444.9636,348.0988,446.2656,353.6038,440.7607,354.9058,450.52,356.2306" style="stroke:#A80036;stroke-width:1.0;"/><polygon fill="#A80036" points="324.31,278.4606,329.8664,286.5925,328.5644,281.0875,334.0693,279.7855,324.31,278.4606" style="stroke:#A80036;stroke-width:1.0;"/><text fill="#000000" font-family="sans-serif" font-size="13" lengthAdjust="spacing" textLength="32" x="399" y="322.8957">SBus</text><!--MD5=[40e023dc3f55710bed6efcfe035b4f2d]
link RC to RCtrans--><path d="M134.86,163.1406 C170.13,184.1206 224.37,216.3806 259.77,237.4406 " fill="none" id="RC-RCtrans" style="stroke:#A80036;stroke-width:1.0;stroke-dasharray:7.0,7.0;"/><polygon fill="#A80036" points="264.42,240.2106,258.729,232.1724,260.1225,237.655,254.64,239.0484,264.42,240.2106" style="stroke:#A80036;stroke-width:1.0;"/><polygon fill="#A80036" points="130.47,160.5206,136.161,168.5588,134.7675,163.0763,140.25,161.6828,130.47,160.5206" style="stroke:#A80036;stroke-width:1.0;"/><text fill="#000000" font-family="sans-serif" font-size="13" lengthAdjust="spacing" textLength="44" x="210" y="206.8957">2.4GHz</text><!--MD5=[07f638aacbd722289406d6297881f1e0]
link Laptop to Wifi1--><path d="M272.66,141.4006 C280.89,141.4006 289.13,141.4006 297.37,141.4006 " fill="none" id="Laptop-Wifi1" style="stroke:#A80036;stroke-width:1.0;"/><polygon fill="#A80036" points="302.5,141.4006,293.5,137.4006,297.5,141.4006,293.5,145.4006,302.5,141.4006" style="stroke:#A80036;stroke-width:1.0;"/><polygon fill="#A80036" points="267.45,141.4006,276.45,145.4006,272.45,141.4006,276.45,137.4006,267.45,141.4006" style="stroke:#A80036;stroke-width:1.0;"/><!--MD5=[b6b878d45511d702d9b6d7c3450132f6]
link Wifi1 to Wifi2--><path d="M372.68,117.7306 C385.64,97.8606 407.1,70.7806 434,58.4006 C478.83,37.7606 495.65,56.0706 545,55.4006 C615.67,54.4506 639.89,28.6406 704,58.4006 C730.7,70.7906 751.84,97.8706 764.58,117.7406 " fill="none" id="Wifi1-Wifi2" style="stroke:#A80036;stroke-width:1.0;stroke-dasharray:7.0,7.0;"/><polygon fill="#A80036" points="767.32,122.1106,765.9184,112.362,764.6597,117.8771,759.1447,116.6185,767.32,122.1106" style="stroke:#A80036;stroke-width:1.0;"/><polygon fill="#A80036" points="369.89,122.1106,378.1001,116.6706,372.5772,117.8941,371.3536,112.3711,369.89,122.1106" style="stroke:#A80036;stroke-width:1.0;"/><text fill="#000000" font-family="sans-serif" font-size="13" lengthAdjust="spacing" textLength="44" x="546" y="46.8957">2.4GHz</text><!--MD5=[3b648a87cbae9a1a3810e5683749bd68]
link Wifi2 to PC--><path d="M745.82,163.3706 C710.79,186.2006 655.59,222.1706 624.11,242.6906 " fill="none" id="Wifi2-PC" style="stroke:#A80036;stroke-width:1.0;"/><polygon fill="#A80036" points="619.64,245.6006,629.3639,244.0367,623.8286,242.8702,624.9951,237.3349,619.64,245.6006" style="stroke:#A80036;stroke-width:1.0;"/><polygon fill="#A80036" points="750.19,160.5206,740.4661,162.0846,746.0014,163.2511,744.8349,168.7864,750.19,160.5206" style="stroke:#A80036;stroke-width:1.0;"/><!--MD5=[e657c019271f0329e2a2e7ebd70a9d44]
reverse link PH to PMbow--><path d="M526.3,375.4006 C536.3,375.4006 546.31,375.4006 556.31,375.4006 " fill="none" id="PH-backto-PMbow" style="stroke:#A80036;stroke-width:1.0;"/><polygon fill="#A80036" points="521.06,375.4006,530.06,379.4006,526.06,375.4006,530.06,371.4006,521.06,375.4006" style="stroke:#A80036;stroke-width:1.0;"/><!--MD5=[eea68d401f50dd3b36b05b23f2a729c0]
reverse link PMbow to Battery Bow--><path d="M700.92,375.4006 C710.76,375.4006 720.61,375.4006 730.46,375.4006 " fill="none" id="PMbow-backto-Battery Bow" style="stroke:#A80036;stroke-width:1.0;"/><polygon fill="#A80036" points="695.77,375.4006,704.77,379.4006,700.77,375.4006,704.77,371.4006,695.77,375.4006" style="stroke:#A80036;stroke-width:1.0;"/><!--MD5=[7ada3e450dbd53f00f5a525a5a661639]
reverse link PH to PMstbd--><path d="M480,399.6806 C480,421.0706 480,452.3606 480,472.0406 " fill="none" id="PH-backto-PMstbd" style="stroke:#A80036;stroke-width:1.0;"/><polygon fill="#A80036" points="480,394.4606,476,403.4606,480,399.4606,484,403.4606,480,394.4606" style="stroke:#A80036;stroke-width:1.0;"/><!--MD5=[2978800d8213c3616e7aa5cd9dc6b8ee]
reverse link PMstbd to Battery STBD--><path d="M480,515.7306 C480,532.7706 480,555.5506 480,571.2406 " fill="none" id="PMstbd-backto-Battery STBD" style="stroke:#A80036;stroke-width:1.0;"/><polygon fill="#A80036" points="480,510.6406,476,519.6406,480,515.6406,484,519.6406,480,510.6406" style="stroke:#A80036;stroke-width:1.0;"/><!--MD5=[69f02f57aa9c8cae7a8ad1625da5c278]
link PC to PH--><path d="M577.2,282.0606 C555.98,302.2206 524.52,332.1106 503.18,352.3806 " fill="none" id="PC-PH" style="stroke:#A80036;stroke-width:1.0;"/><polygon fill="#A80036" points="499.32,356.0406,508.602,352.7476,502.9471,352.5991,503.0956,346.9442,499.32,356.0406" style="stroke:#A80036;stroke-width:1.0;"/><polygon fill="#A80036" points="580.99,278.4606,571.708,281.7536,577.3629,281.9021,577.2144,287.557,580.99,278.4606" style="stroke:#A80036;stroke-width:1.0;"/><text fill="#000000" font-family="sans-serif" font-size="13" lengthAdjust="spacing" textLength="43" x="548" y="322.8957">RS-232</text><!--MD5=[d06024b9df5662eb350fd929d25da225]
reverse link PC to SBES--><path d="M624.75,259.4006 C645.96,259.4006 676.51,259.4006 698.69,259.4006 " fill="none" id="PC-backto-SBES" style="stroke:#A80036;stroke-width:1.0;"/><polygon fill="#A80036" points="619.57,259.4006,628.57,263.4006,624.57,259.4006,628.57,255.4006,619.57,259.4006" style="stroke:#A80036;stroke-width:1.0;"/><text fill="#000000" font-family="sans-serif" font-size="13" lengthAdjust="spacing" textLength="43" x="637.75" y="252.8957">RS-232</text><!--MD5=[691ccb9dff32d2273b14f4d025c05918]
reverse link SBES to PMbow--><path d="M707.57,282.3306 C688.6,303.7406 660.07,335.9506 642.26,356.0406 " fill="none" id="SBES-backto-PMbow" style="stroke:#A80036;stroke-width:1.0;"/><polygon fill="#A80036" points="711,278.4606,702.0388,282.5469,707.6853,282.204,708.0282,287.8504,711,278.4606" style="stroke:#A80036;stroke-width:1.0;"/><!--MD5=[86e273b242dfb49257b2ba56961e5551]
reverse link PC to PMbow--><path d="M605.25,283.4106 C610.13,304.8106 617.31,336.2806 621.81,356.0406 " fill="none" id="PC-backto-PMbow" style="stroke:#A80036;stroke-width:1.0;"/><polygon fill="#A80036" points="604.12,278.4606,602.2275,288.126,605.2349,283.3347,610.0261,286.3421,604.12,278.4606" style="stroke:#A80036;stroke-width:1.0;"/><!--MD5=[c601596164c486fffeaa9b38b89304c0]
link IMU to PC--><path d="M877.92,160.4706 C871.05,168.8206 861.99,178.2206 852,184.4006 C813.12,208.4506 680.52,240.2306 624.89,252.8706 " fill="none" id="IMU-to-PC" style="stroke:#A80036;stroke-width:1.0;"/><polygon fill="#A80036" points="619.75,254.0306,629.4088,255.9561,624.6279,252.9324,627.6516,248.1515,619.75,254.0306" style="stroke:#A80036;stroke-width:1.0;"/><text fill="#000000" font-family="sans-serif" font-size="13" lengthAdjust="spacing" textLength="43" x="833" y="206.8957">RS-232</text><!--MD5=[2c9889330dc3f336671c780556cf26bc]
link GNSS to PH--><path d="M480,160.6006 C480,202.3606 480,305.0006 480,351.2006 " fill="none" id="GNSS-to-PH" style="stroke:#A80036;stroke-width:1.0;"/><polygon fill="#A80036" points="480,356.2806,484,347.2806,480,351.2806,476,347.2806,480,356.2806" style="stroke:#A80036;stroke-width:1.0;"/><text fill="#000000" font-family="sans-serif" font-size="13" lengthAdjust="spacing" textLength="43" x="481" y="264.8957">RS-232</text><!--MD5=[2a64cda466e718fc1d4b39d48eefa326]
link GNSS to PC--><path d="M498.75,160.5206 C519.94,181.0106 554.42,214.3406 577.16,236.3206 " fill="none" id="GNSS-to-PC" style="stroke:#A80036;stroke-width:1.0;"/><polygon fill="#A80036" points="580.99,240.0206,577.3248,230.8791,577.4048,236.5354,571.7485,236.6154,580.99,240.0206" style="stroke:#A80036;stroke-width:1.0;"/><text fill="#000000" font-family="sans-serif" font-size="13" lengthAdjust="spacing" textLength="43" x="548" y="206.8957">RS-232</text><!--MD5=[df5ab393de3416368afafbf7f5aaf762]
link GNSS to GNSSC--><path d="M514.27,141.4006 C526.98,141.4006 541.87,141.4006 556.52,141.4006 " fill="none" id="GNSS-GNSSC" style="stroke:#A80036;stroke-width:1.0;stroke-dasharray:7.0,7.0;"/><polygon fill="#A80036" points="561.9,141.4006,552.9,137.4006,556.9,141.4006,552.9,145.4006,561.9,141.4006" style="stroke:#A80036;stroke-width:1.0;"/><polygon fill="#A80036" points="509.14,141.4006,518.14,145.4006,514.14,141.4006,518.14,137.4006,509.14,141.4006" style="stroke:#A80036;stroke-width:1.0;"/><text fill="#000000" font-family="sans-serif" font-size="13" lengthAdjust="spacing" textLength="16" x="527.5" y="134.8957">BT</text><!--MD5=[433b3a173f6ff10c89b8b9fafcde3270]
link PH to ESCps--><path d="M445.46,394.4606 C406.27,414.9606 342.48,448.3106 301.39,469.8006 " fill="none" id="PH-to-ESCps" style="stroke:#A80036;stroke-width:1.0;"/><polygon fill="#A80036" points="296.74,472.2306,306.5699,471.6204,301.1744,469.9207,302.8741,464.5252,296.74,472.2306" style="stroke:#A80036;stroke-width:1.0;"/><text fill="#000000" font-family="sans-serif" font-size="13" lengthAdjust="spacing" textLength="33" x="385" y="438.8957">PWM</text><!--MD5=[7824efd5ec25e176d9bd49782d1803f1]
link PH to ESCstbd--><path d="M515.97,394.4606 C556.86,415.0006 623.47,448.4506 666.25,469.9306 " fill="none" id="PH-to-ESCstbd" style="stroke:#A80036;stroke-width:1.0;"/><polygon fill="#A80036" points="670.82,472.2306,664.5687,464.62,666.3507,469.9888,660.9819,471.7708,670.82,472.2306" style="stroke:#A80036;stroke-width:1.0;"/><text fill="#000000" font-family="sans-serif" font-size="13" lengthAdjust="spacing" textLength="33" x="608" y="438.8957">PWM</text><!--MD5=[95a8212c273850b7880a0cb3fef50419]
reverse link ESCps to Battery PS--><path d="M272.15,515.3006 C279.72,532.3806 289.93,555.4106 296.95,571.2406 " fill="none" id="ESCps-backto-Battery PS" style="stroke:#A80036;stroke-width:1.0;"/><polygon fill="#A80036" points="270.09,510.6406,270.0843,520.4895,272.118,515.2109,277.3967,517.2446,270.09,510.6406" style="stroke:#A80036;stroke-width:1.0;"/><!--MD5=[344c51ad62a3253c82bc49540fd25021]
link PMstbd to ESCstbd--><path d="M555.37,491.4006 C565.12,491.4006 574.87,491.4006 584.63,491.4006 " fill="none" id="PMstbd-to-ESCstbd" style="stroke:#A80036;stroke-width:1.0;"/><polygon fill="#A80036" points="589.72,491.4006,580.72,487.4006,584.72,491.4006,580.72,495.4006,589.72,491.4006" style="stroke:#A80036;stroke-width:1.0;"/><!--MD5=[5c419c2b96c3a64b0e05e3e8da807669]
link ESCps to Motor PS--><path d="M247.89,510.6406 C235.53,526.6306 217.52,549.9206 204.3,567.0306 " fill="none" id="ESCps-to-Motor PS" style="stroke:#A80036;stroke-width:1.0;"/><polygon fill="#A80036" points="201.04,571.2406,209.7077,566.564,204.0968,567.2839,203.3769,561.673,201.04,571.2406" style="stroke:#A80036;stroke-width:1.0;"/><!--MD5=[8567aa3326b77f9de6ebf92464a71a49]
link ESCstbd to Motor STBD--><path d="M707,510.6406 C707,526.3606 707,549.1306 707,566.1506 " fill="none" id="ESCstbd-to-Motor STBD" style="stroke:#A80036;stroke-width:1.0;"/><polygon fill="#A80036" points="707,571.2406,711,562.2406,707,566.2406,703,562.2406,707,571.2406" style="stroke:#A80036;stroke-width:1.0;"/><!--MD5=[d84159e849c55e090de8b9acb389cb7e]
@startuml
title "EchoBoat Systems Overview"
skinparam componentStyle rectangle

component "Pixhawk 4" as PH
component "PC"
component "SBES"
component "GNSS"
component "GNSS Controller" as GNSSC
component "IMU"
component "Power Module STBD" as PMstbd
component "Power Module Bow" as PMbow
component "Battery PS"
component "Battery STBD"
component "Battery Bow"
component "Electronic Speed Controller PS" as ESCps
component "Electronic Speed Controller STBD" as ESCstbd
component "Motor PS"
component "Motor STBD"
component "RC Receiver" as RCtrans

package "Land"{
    component "Remote Controller" as RC
    component "Laptop"
    component "Wifi-Antenna 1" as Wifi1
}

component "Wifi-Antenna 2" as Wifi2

RCtrans <-right-> PH :SBus
RC <.down.> RCtrans :2.4GHz

Wifi1 <-left-> [Laptop]
Wifi1 <.> Wifi2 :2.4GHz
Wifi2 <-down-> PC

PH <-right- PMbow

PMbow <- [Battery Bow]
PH <-down- PMstbd
PMstbd <-down- [Battery STBD]


PH <-up-> [PC] :RS-232

[SBES] -left-> [PC] :RS-232
[SBES] <-down- [PMbow]
[PC] <-down- [PMbow]

[PC] <-up- IMU :RS-232

PH <-up- [GNSS] :RS-232
[GNSS] -down-> [PC] :RS-232
[GNSS] <.> GNSSC :BT

PH -down-> ESCps :PWM
PH -down-> ESCstbd :PWM

ESCps <-down- [Battery PS]
ESCstbd <-left- [PMstbd]

[Motor PS] <-up- ESCps
[Motor STBD] <-up- ESCstbd

@enduml

PlantUML version 1.2021.00(Sun Jan 10 11:25:05 CET 2021)
(GPL source distribution)
Java Runtime: OpenJDK Runtime Environment
JVM: OpenJDK 64-Bit Server VM
Default Encoding: Cp1252
Language: de
Country: DE
--></g></svg>